HIERARCHY
ROOT Hips
{
	OFFSET 0.000000 0.000000 0.000000
	CHANNELS 6 Xposition Yposition Zposition Zrotation Yrotation Xrotation 
	JOINT LHipJoint
	{
		OFFSET 0.000000 0.000000 0.000000
		CHANNELS 3 Zrotation Yrotation Xrotation
		JOINT LeftUpLeg
		{
			OFFSET 1.363060 -1.794630 0.839290
			CHANNELS 3 Zrotation Yrotation Xrotation
			JOINT LeftLeg
			{
				OFFSET 2.448110 -6.726130 0.000000
				CHANNELS 3 Zrotation Yrotation Xrotation
				JOINT LeftFoot
				{
					OFFSET 2.562200 -7.039590 0.000000
					CHANNELS 3 Zrotation Yrotation Xrotation
					JOINT LeftToeBase
					{
						OFFSET 0.157640 -0.433110 2.322550
						CHANNELS 3 Zrotation Yrotation Xrotation
						End Site
						{
							OFFSET 0.000000 0.000000 0.000000
						}
					}
				}
			}
		}
	}
	JOINT RHipJoint
	{
		OFFSET 0.000000 0.000000 0.000000
		CHANNELS 3 Zrotation Yrotation Xrotation
		JOINT RightUpLeg
		{
			OFFSET -1.305520 -1.794630 0.839290
			CHANNELS 3 Zrotation Yrotation Xrotation
			JOINT RightLeg
			{
				OFFSET -2.542530 -6.985550 0.000000
				CHANNELS 3 Zrotation Yrotation Xrotation
				JOINT RightFoot
				{
					OFFSET -2.568260 -7.056230 0.000000
					CHANNELS 3 Zrotation Yrotation Xrotation
					JOINT RightToeBase
					{
						OFFSET -0.164730 -0.452590 2.363150
						CHANNELS 3 Zrotation Yrotation Xrotation
						End Site
						{
							OFFSET 0.000000 0.000000 0.000000
						}
					}
				}
			}
		}
	}
	JOINT LowerBack
	{
		OFFSET 0.000000 0.000000 0.000000
		CHANNELS 3 Zrotation Yrotation Xrotation
		JOINT Spine
		{
			OFFSET 0.028270 2.035590 -0.193380
			CHANNELS 3 Zrotation Yrotation Xrotation
			JOINT Spine1
			{
				OFFSET 0.056720 2.048850 -0.042750
				CHANNELS 3 Zrotation Yrotation Xrotation
				JOINT Neck
				{
					OFFSET 0.000000 0.000000 0.000000
					CHANNELS 3 Zrotation Yrotation Xrotation
					JOINT Neck1
					{
						OFFSET -0.054170 1.746240 0.172020
						CHANNELS 3 Zrotation Yrotation Xrotation
						JOINT Head
						{
							OFFSET 0.104070 1.761360 -0.123970
							CHANNELS 3 Zrotation Yrotation Xrotation
							End Site
							{
								OFFSET 0.000000 0.000000 0.000000
							}
						}
					}
				}
				JOINT LeftShoulder
				{
					OFFSET 0.000000 0.000000 0.000000
					CHANNELS 3 Zrotation Yrotation Xrotation
					JOINT LeftArm
					{
						OFFSET 3.362410 1.200890 -0.311210
						CHANNELS 3 Zrotation Yrotation Xrotation
						JOINT LeftForeArm
						{
							OFFSET 4.983000 -0.000000 -0.000000
							CHANNELS 3 Zrotation Yrotation Xrotation
							JOINT LeftHand
							{
								OFFSET 3.483560 -0.000000 -0.000000
								CHANNELS 3 Zrotation Yrotation Xrotation
								JOINT LeftFingerBase
								{
									OFFSET 0.000000 0.000000 0.000000
									CHANNELS 3 Zrotation Yrotation Xrotation
									JOINT LeftHandIndex1
									{
										OFFSET 0.715260 -0.000000 -0.000000
										CHANNELS 3 Zrotation Yrotation Xrotation
										End Site
										{
											OFFSET 0.000000 0.000000 0.000000
										}
									}
								}
								JOINT LThumb
								{
									OFFSET 0.000000 0.000000 0.000000
									CHANNELS 3 Zrotation Yrotation Xrotation
									End Site
									{
										OFFSET 0.000000 0.000000 0.000000
									}
								}
							}
						}
					}
				}
				JOINT RightShoulder
				{
					OFFSET 0.000000 0.000000 0.000000
					CHANNELS 3 Zrotation Yrotation Xrotation
					JOINT RightArm
					{
						OFFSET -3.136600 1.374050 -0.404650
						CHANNELS 3 Zrotation Yrotation Xrotation
						JOINT RightForeArm
						{
							OFFSET -5.241900 -0.000000 -0.000000
							CHANNELS 3 Zrotation Yrotation Xrotation
							JOINT RightHand
							{
								OFFSET -3.444170 -0.000000 -0.000000
								CHANNELS 3 Zrotation Yrotation Xrotation
								JOINT RightFingerBase
								{
									OFFSET 0.000000 0.000000 0.000000
									CHANNELS 3 Zrotation Yrotation Xrotation
									JOINT RightHandIndex1
									{
										OFFSET -0.622530 -0.000000 -0.000000
										CHANNELS 3 Zrotation Yrotation Xrotation
										End Site
										{
											OFFSET 0.000000 0.000000 0.000000
										}
									}
								}
								JOINT RThumb
								{
									OFFSET 0.000000 0.000000 0.000000
									CHANNELS 3 Zrotation Yrotation Xrotation
									End Site
									{
										OFFSET 0.000000 0.000000 0.000000
									}
								}
							}
						}
					}
				}
			}
		}
	}
}
MOTION
Frames: 11
Frame Time: 0.008333
23.720721 16.371021 -1.095598 33.278106 67.024085 42.760802 -3.526651 24.384417 8.910012 -16.961078 -21.793853 -40.618692 10.545486 -1.670182 21.179541 11.419245 7.925934 2.124926 -47.558880 -85.035423 79.910987 -6.532333 -18.463190 4.923959 27.905122 4.082059 -31.036642 -11.086267 -18.769756 40.243370 -3.913608 12.914385 -11.376488 -7.146931 0.037822 -20.619105 10.157186 0.019568 -3.551051 -5.148519 0.472353 -2.552920 -11.115828 1.652151 5.359834 -3.593091 0.065673 -9.052312 -3.428678 -0.044139 12.079886 9.065792 -12.281150 16.884258 7.984043 -0.188315 -0.220896 -82.979978 8.825947 11.970305 167.202321 -67.026603 -158.521892 -14.252008 16.715801 -4.336276 0.000001 -0.000001 0.000002 -0.000000 -0.000000 -0.000000 0.000000 0.000000 0.000000 -8.085361 6.854005 2.936590 74.546996 16.208343 34.123979 -113.652202 69.122580 -105.535445 32.151220 -10.888164 -4.359539 0.000000 -0.000000 0.000000 -0.000000 0.000000 -0.000000 0.000000 -0.000000 0.000000 
23.811261 16.282583 -1.342541 31.787728 65.963746 41.518703 -3.237354 24.084619 8.900563 -15.559652 -22.165385 -40.323733 11.029928 -1.981184 20.182335 11.627722 10.101854 2.530413 -18.413054 -84.226437 49.555867 -7.192144 -18.480513 4.601759 28.166057 5.393082 -30.175049 -10.973649 -17.828701 40.211759 -7.534086 10.626687 -14.093751 -9.278302 1.498634 -24.133380 10.600511 0.041255 -3.269021 -5.158550 0.403445 -2.819748 -11.471588 1.660912 5.541413 -3.703734 0.094955 -9.491266 -3.644996 -0.014270 11.830189 9.623365 -12.712458 15.852845 8.080250 0.233764 -0.298319 -83.472086 9.269226 11.779016 166.270738 -67.234877 -156.759094 -13.112551 15.065066 -3.736844 0.000001 -0.000001 0.000002 0.000000 -0.000000 -0.000000 -0.000000 0.000000 0.000000 -8.501202 6.731619 2.959927 74.964857 17.376742 35.539781 -113.183075 68.230470 -103.287197 31.721655 -10.048444 -3.943129 0.000000 -0.000000 0.000000 0.000000 -0.000000 0.000000 0.000000 -0.000000 0.000000 
23.906306 16.182583 -1.600871 30.179104 65.106327 39.890073 -3.151586 24.252124 8.776400 -13.883380 -23.002994 -40.312167 11.349239 -2.196267 20.901064 10.376472 10.929740 2.768605 3.005193 -77.665734 25.842910 -7.696504 -18.486658 4.421969 27.896395 6.344154 -29.506843 -9.770249 -16.369442 40.483776 -13.296446 7.122115 -16.024135 -9.795722 0.159754 -27.290715 11.029669 -0.074875 -2.909864 -5.045637 0.321479 -2.963496 -11.613627 1.729913 5.819883 -3.703903 -0.003822 -9.839557 -3.932617 -0.126281 11.565469 9.930295 -13.842656 16.082384 8.264546 0.547380 -0.344361 -84.072332 9.413925 11.438539 165.877247 -67.842012 -157.249896 -12.592784 15.749650 -3.850007 0.000001 -0.000001 0.000002 0.000000 0.000000 -0.000000 0.000000 0.000000 0.000000 -8.737857 6.591821 2.955693 75.292901 18.429562 35.669422 -112.720117 68.461237 -102.702328 31.716583 -9.944553 -3.896319 0.000000 0.000000 0.000000 0.000000 0.000000 -0.000000 0.000000 0.000000 0.000000 
24.000751 16.080480 -1.858258 28.427926 64.077817 38.205255 -2.869793 24.019270 8.729165 -12.096266 -23.698441 -40.313539 11.320324 -2.773820 21.844188 10.685554 12.295604 3.156680 5.042675 -77.444887 23.545080 -8.182358 -18.325393 4.123291 27.717053 7.209389 -28.860267 -9.263274 -15.546766 40.611061 -18.422236 4.439134 -17.184368 -8.589671 -2.677503 -28.493447 11.417987 -0.114760 -2.557164 -4.914143 0.288486 -3.119705 -11.876797 1.747315 5.856314 -3.577998 0.013780 -9.980298 -4.176744 -0.156725 11.301064 10.141048 -14.409192 16.064232 8.613190 0.919758 -0.264599 -84.706757 9.660638 10.561783 166.718126 -68.576784 -159.290711 -13.497853 16.807589 -4.254334 0.000001 -0.000001 0.000002 0.000000 0.000000 0.000000 0.000000 0.000000 -0.000000 -8.864484 6.716614 2.895030 75.645444 19.205839 35.701557 -112.337019 68.739763 -101.893205 31.042930 -9.448456 -3.620602 0.000000 0.000000 -0.000000 -0.000000 0.000000 0.000000 0.000000 0.000000 -0.000000 
24.097748 15.998498 -2.120150 26.652194 63.049964 36.617220 -3.448887 23.345592 8.445593 -9.357552 -23.621643 -40.654527 11.097855 -3.288882 22.748969 9.761074 13.640637 3.093843 11.908822 -74.549641 15.183852 -8.317529 -17.677696 3.886396 26.907172 8.110621 -28.525541 -8.230927 -14.908288 40.587796 -22.089779 1.313883 -17.702929 -8.146516 -4.354296 -30.081648 12.157870 -0.134810 -2.278874 -5.045202 0.273715 -3.263570 -12.041414 1.769848 6.119077 -3.612710 -0.036846 -10.350877 -4.511630 -0.210005 11.045201 10.430798 -15.157112 15.806169 8.545685 1.305487 -0.345975 -85.116088 9.803193 10.066501 166.611849 -69.219324 -160.558297 -13.180740 18.307751 -4.610381 0.000001 -0.000001 0.000002 0.000000 0.000000 0.000000 -0.000000 0.000000 0.000000 -8.876459 6.715555 2.915059 75.872437 20.288502 35.993330 -111.635759 68.838812 -100.921032 30.647558 -9.630612 -3.668013 -0.000000 0.000000 -0.000000 -0.000000 0.000000 -0.000000 -0.000000 0.000000 -0.000000 
24.204354 15.915165 -2.378769 25.183017 61.984418 35.277052 -3.892997 22.851229 8.078586 -7.198024 -23.647939 -40.462498 11.436858 -2.868312 23.234264 7.872866 13.154823 2.961954 10.769117 -66.923842 14.340832 -8.646425 -17.308363 3.806578 26.386566 8.838162 -28.442243 -7.478779 -14.035050 40.796984 -25.680936 -1.572488 -17.845949 -7.810780 -5.574194 -31.309249 12.748320 -0.168193 -2.066735 -5.087107 0.233751 -3.365100 -12.020111 1.737451 6.597776 -3.792008 -0.096831 -10.866334 -4.813967 -0.257303 10.708076 10.642158 -16.238115 17.317822 8.371901 1.827405 -0.312279 -85.603699 9.619111 9.437381 167.277673 -69.917904 -161.772740 -13.006664 18.421678 -4.613558 0.000001 -0.000001 0.000002 -0.000000 0.000000 0.000000 0.000000 -0.000000 0.000000 -9.149816 6.679272 2.778173 76.128612 21.324035 36.407368 -110.525604 68.846139 -98.615525 30.325558 -8.960568 -3.352551 -0.000000 -0.000000 0.000000 0.000000 0.000000 0.000000 -0.000000 -0.000000 0.000000 
24.304655 15.860961 -2.628859 23.570603 60.587083 33.897381 -4.570185 21.271790 7.514488 -4.683252 -23.120224 -39.744104 11.361479 -2.296418 24.003994 4.834912 11.261333 2.550608 5.249711 -54.415974 17.697232 -8.535848 -16.512206 3.480187 25.182130 9.287576 -28.972390 -7.079719 -13.683137 41.521157 -27.577574 -3.818941 -17.862561 -7.476321 -6.619771 -32.308139 13.222244 -0.122705 -1.645224 -5.186915 0.199149 -3.545584 -12.055633 1.707912 6.635832 -3.727246 -0.153839 -11.095272 -5.119933 -0.357021 10.233812 10.279952 -16.892461 17.368341 8.324022 2.177652 -0.335693 -86.115057 9.568231 9.206118 167.174086 -70.487475 -161.762942 -13.168364 18.103825 -4.553860 0.000001 -0.000001 0.000002 -0.000000 0.000000 0.000000 0.000000 0.000000 0.000000 -8.972869 6.953853 2.684074 76.283828 21.940835 36.189135 -108.664299 69.387458 -96.920442 29.478893 -8.939656 -3.280361 -0.000000 -0.000000 0.000000 0.000000 -0.000000 0.000000 -0.000000 -0.000000 0.000000 
24.415315 15.791141 -2.879790 21.944813 58.888329 32.456597 -4.556311 19.796196 7.085707 -2.808867 -23.210685 -38.315912 11.241578 -1.764039 24.739208 1.974532 9.839241 1.930270 4.691383 -45.970344 15.918778 -8.815009 -15.851031 3.173202 24.220256 10.331181 -29.173330 -6.901009 -13.759725 42.128117 -31.556701 -6.055854 -17.395546 -6.735047 -7.477580 -31.802244 13.534664 -0.051826 -1.227182 -5.132292 0.308156 -3.693522 -12.115526 1.847429 6.832262 -3.660172 -0.145860 -11.424841 -5.321133 -0.413890 9.758622 10.410171 -17.457066 17.115902 8.480149 2.562351 -0.375630 -86.797104 9.434772 9.074504 166.961405 -71.054117 -161.555952 -13.214703 17.824702 -4.486209 0.000001 -0.000001 0.000002 -0.000000 -0.000000 -0.000000 0.000000 0.000000 0.000000 -9.018773 7.043584 2.621540 76.504609 22.699433 35.868306 -106.958399 70.024098 -94.728364 29.325830 -8.118390 -2.923675 0.000000 0.000000 -0.000000 0.000000 0.000000 0.000000 0.000000 0.000000 -0.000000 
24.523724 15.729580 -3.129925 20.393976 57.223006 31.083097 -5.166788 17.876521 6.374417 -0.831256 -22.038670 -36.703947 11.377475 -0.881672 24.948809 -2.299987 7.133799 1.460950 1.388241 -30.080349 15.498792 -8.832284 -15.027848 2.879019 23.231448 10.799753 -29.633439 -6.952256 -13.660077 42.672117 -33.914632 -7.629117 -16.942978 -6.419653 -7.772334 -31.439745 13.956506 0.038061 -0.734405 -5.159605 0.243198 -3.845988 -12.263540 1.716185 6.849424 -3.507374 -0.125992 -11.632787 -5.535167 -0.476494 9.217400 9.986898 -17.798382 17.086251 8.600411 3.224944 -0.407089 -87.382361 9.455819 8.959997 166.455185 -71.594426 -161.392993 -13.077824 18.053596 -4.526462 0.000001 -0.000001 0.000002 -0.000000 0.000000 0.000000 0.000000 0.000000 0.000000 -8.868875 7.599264 2.605022 76.656160 23.407779 35.298532 -105.352287 70.844539 -93.945301 28.697170 -9.089813 -3.284633 -0.000000 0.000000 -0.000000 0.000000 0.000000 -0.000000 -0.000000 0.000000 -0.000000 
24.633634 15.676577 -3.380465 18.895682 55.277162 29.642419 -6.246013 15.423687 5.378152 1.085546 -19.774396 -34.245623 11.378478 -0.238521 24.831680 -7.235755 4.107502 0.911087 -1.904177 -10.950520 12.869340 -8.751948 -14.079040 2.472117 22.210832 11.042059 -30.056043 -7.331327 -13.519609 43.287417 -35.500419 -8.393660 -16.540120 -5.808663 -8.195564 -30.415415 14.356223 0.219902 -0.023060 -5.261700 0.393605 -4.007810 -12.068909 1.793368 6.964508 -3.689529 -0.100665 -11.896252 -5.724489 -0.455982 8.810253 9.754274 -17.992445 16.969073 8.357573 3.492278 -0.559705 -87.883850 9.437039 8.995742 165.770642 -72.008377 -160.113010 -13.122432 17.165878 -4.296475 0.000001 -0.000001 0.000002 -0.000000 -0.000000 -0.000000 -0.000000 -0.000000 0.000000 -8.974149 7.732589 2.516485 76.818279 24.044446 35.513337 -102.541084 70.957902 -88.346492 28.554053 -7.281711 -2.528233 -0.000000 -0.000000 0.000000 -0.000000 -0.000000 0.000000 -0.000000 -0.000000 0.000000 
24.745946 15.623574 -3.630255 17.603824 52.792754 27.972983 -6.401731 11.914170 3.700450 1.343903 -17.640710 -28.577514 11.161532 0.315845 24.216953 -10.732941 1.162463 -0.636924 -4.844058 3.217193 10.169297 -9.083706 -12.959548 2.132575 21.524375 11.374793 -30.428956 -7.586269 -12.635094 44.718072 -36.245272 -8.911178 -16.161960 -5.651039 -8.265914 -30.065866 14.356738 0.465297 1.187286 -5.216474 0.526759 -4.192684 -12.087531 1.867246 6.741081 -3.536611 -0.220727 -11.898752 -5.742527 -0.658476 8.609557 10.672921 -19.194296 17.194036 8.607192 3.809412 -0.556414 -88.511466 9.546529 9.255980 165.521884 -72.064578 -159.816785 -13.461632 17.196475 -4.354031 0.000001 -0.000001 0.000002 -0.000000 -0.000000 -0.000000 -0.000000 -0.000000 -0.000000 -8.985691 8.082590 2.551507 77.030037 24.316249 34.624080 -100.217782 72.069607 -87.024963 28.338916 -7.517268 -2.612519 -0.000000 -0.000000 -0.000000 0.000000 0.000000 -0.000000 -0.000000 -0.000000 -0.000000 
